<svg xmlns="http://www.w3.org/2000/svg" version="1.2" viewBox="259 186 1286 525" width="160" height="65">
	<style>
		.s0 { fill: #4d4c4d } 
		.s1 { fill: #676767 } 
		.s2 { fill: #d53c27 } 
		.s3 { fill: #ef4f23 } 
	</style>
	<g id="Layer 1">
		<g id="&lt;Group&gt;">
			<g id="&lt;Group&gt;">
				<path id="&lt;Compound Path&gt;" fill-rule="evenodd" class="s0" d="m799.3 338.8q0 16.3-11.8 22.8-7.9 4.3-26.2 5.6v12.9q0 9.9 3.2 24.3h-20.6q3.2-12.3 3.2-22.1v-41.1q0-15.4-3.2-30h22.7q32.7 0.1 32.7 27.6zm-15.3 2q0-8.5-4.2-14.1-4.7-6.4-13.1-6.4h-5.4v39.6q11.2-0.7 16.3-4.2 6.4-4.4 6.4-14.9z"/>
				<path id="&lt;Compound Path&gt;" fill-rule="evenodd" class="s0" d="m881.8 404.4h-16.8q-16.7-15-35.8-42.3v13q0 15.8 3.2 29.3h-20.6q3.2-10.1 3.2-27.6v-39.3q0-11.8-3.2-26.3h10.2q19.6 0.1 29.3 3.9 15.1 6.2 15.1 23 0 16-18.2 23.9 13.2 21.1 33.6 42.4zm-30.6-65.6q0-16.8-22-18.5v37.7q9.4-1 15.1-5.2 6.9-5.1 6.9-14z"/>
				<path id="&lt;Compound Path&gt;" fill-rule="evenodd" class="s0" d="m979.7 358q0 20.4-13.5 34.1c-9 9.2-20.3 13.7-33.9 13.7q-21.2 0-34.6-13.6-13.4-13.7-13.4-35 0-20.6 14.2-34.1 14.1-13.2 34.9-13.2 20.5 0 33.5 13.9 12.8 13.6 12.8 34.2zm-15.3 2.7q0-15.3-8.8-26.8-9.7-12.7-24.5-12.7-14.2 0-23.1 9.7-8.5 9.4-8.5 23.6 0 15.8 8.9 27.4 9.7 12.6 25.2 12.6 13.8 0 22.6-10.2 8.2-9.6 8.2-23.6z"/>
				<path id="&lt;Compound Path&gt;" fill-rule="evenodd" class="s0" d="m1045.6 338.8q0 16.3-11.8 22.8-7.9 4.3-26.2 5.6v12.9q0 9.9 3.2 24.3h-20.6q3.1-12.3 3.1-22.1v-41.1q0-15.4-3.1-30h22.7q32.7 0.1 32.7 27.6zm-15.3 2q0-8.5-4.2-14.1-4.7-6.4-13.1-6.4h-5.4v39.6q11.2-0.7 16.3-4.2 6.4-4.4 6.4-14.9z"/>
				<path id="&lt;Compound Path&gt;" fill-rule="evenodd" class="s0" d="m1115.4 386.1l-7.8 18.3h-49.3q3.2-10.4 3.2-31.1v-32.5q0-15.4-3.2-29.6h51.3l-7.2 15.1q-9.5-4.9-20-4.9-1.4 0-6.7 0.2v30.1h30.6l-8.7 15q-8.6-4.2-21.9-4.8v32.3q16.7-1.1 20.5-1.8 10.2-1.6 19.2-6.3z"/>
				<path id="&lt;Compound Path&gt;" fill-rule="evenodd" class="s0" d="m1195.9 404.4h-16.8q-16.7-15-35.8-42.3v13q0 15.8 3.2 29.3h-20.7q3.2-10.1 3.2-27.6v-39.3q0-11.8-3.2-26.3h10.3q19.6 0.1 29.3 3.9 15.1 6.2 15 23 0 16-18.1 23.9 13.2 21.1 33.6 42.4zm-30.7-65.6q0-16.8-21.9-18.5v37.7q9.3-1 15.1-5.2 6.8-5.1 6.8-14z"/>
				<path id="&lt;Compound Path&gt;" fill-rule="evenodd" class="s0" d="m1269.2 311.2l-4.6 15.1q-7.1-3.2-12.2-4.1-4.1-0.7-12.8-0.8v52q0 20.3 3.1 31h-20.6q3.2-9.7 3.2-31.6v-51.4q-10.1 0.7-15 1.4-8.2 1.1-14.6 3.5l5-15.1z"/>
				<path id="&lt;Compound Path&gt;" fill-rule="evenodd" class="s0" d="m1347.8 311.2q-8.6 8.6-17.3 24.4-6.8 13.2-13.8 26.4v19.4q0 12 3.3 23h-20.7q3.2-12.3 3.2-23.1v-19.3q-6.9-13-13.9-25.9-9.2-16.6-17.1-24.9h22.1q0.2 4.9 1 7.2 0.3 0.9 3.4 6.6l12 23.2 10.3-17.6q6-11 6.5-19.4z"/>
				<path id="&lt;Compound Path&gt;" fill-rule="evenodd" class="s0" d="m849.3 437.1q-5 6.8-6.7 13.9-1.3 5.6-1.3 15.1v35q0 17.7 3.2 29.2h-20.7q3.3-12.9 3.3-29.7v-37.2l-30.9 39.5-30.9-37.8v38.3q0 14.1 3.2 26.9h-20.7q3.3-11.6 3.3-28.9v-52.1l-9.8-12.2h21.7q0.5 4 3 7.5 0.1 0.3 5.3 6.5l25.2 30.7 22.7-28.3q4.6-5.8 5.9-7.7 2.8-4.1 4.2-8.7z"/>
				<path id="&lt;Compound Path&gt;" fill-rule="evenodd" class="s0" d="m948.3 530.3h-22.5q-0.8-7.4-3.5-14.8-1-2.5-6.3-14.3h-33.5q-4.2 11-5.2 14.2-2.6 8.2-2.8 14.9h-22.9q6.8-8 17.8-30.9l30.5-63.7 31.4 65.8q7.8 16.7 17 28.8zm-37.6-40.7l-11.5-27.8-11.8 27.8z"/>
				<path id="&lt;Compound Path&gt;" fill-rule="evenodd" class="s0" d="m1025.1 437.1l-4.6 15q-7.1-3.1-12.2-4c-2.7-0.5-6.9-0.8-12.8-0.8v51.9q0 20.3 3.2 31.1h-20.7q3.3-9.7 3.3-31.6v-51.4q-10.2 0.6-15.1 1.3-8.1 1.2-14.6 3.5l5.1-15z"/>
				<path id="&lt;Compound Path&gt;" fill-rule="evenodd" class="s0" d="m1105.4 530.3h-16.8q-16.7-15-35.8-42.4v13q0 15.8 3.2 29.4h-20.6q3.1-10.1 3.1-27.7v-39.2q0-11.9-3.1-26.3h10.2q19.6 0 29.3 3.9 15.1 6.1 15.1 22.9 0 16.1-18.2 23.9c8.8 14.1 20 28.3 33.6 42.5zm-30.6-65.6q0-16.9-22-18.5v37.6q9.4-1 15.1-5.2 6.9-5.1 6.9-13.9z"/>
				<path id="&lt;Compound Path&gt;" fill-rule="evenodd" class="s0" d="m1132.3 530.3h-20.7q3.2-12.3 3.2-24v-41.7q0-15.7-3.2-27.5h20.7q-3.3 11.8-3.3 27.5v41.1q0 12.3 3.3 24.6z"/>
				<path id="&lt;Compound Path&gt;" fill-rule="evenodd" class="s0" d="m1251.3 437.1q-4.9 6.8-6.6 13.9-1.4 5.6-1.4 15.1v35q0 17.7 3.3 29.2h-20.7q3.2-12.9 3.2-29.7v-37.2l-30.9 39.5-30.9-37.8v38.3q0 14.1 3.2 26.9h-20.6q3.2-11.6 3.2-28.9v-52.1l-9.8-12.2h21.7q0.6 4 3 7.5 0.1 0.3 5.3 6.5l25.3 30.7 22.6-28.3q4.7-5.8 6-7.7 2.7-4.1 4.1-8.7z"/>
				<path id="&lt;Compound Path&gt;" fill-rule="evenodd" class="s0" d="m1354.6 483.8q0 20.4-13.5 34.1-13.5 13.8-33.9 13.8-21.2 0-34.6-13.7-13.4-13.7-13.4-34.9 0-20.7 14.3-34.2 14-13.2 34.8-13.2 20.5 0 33.5 13.9 12.8 13.6 12.8 34.2zm-15.3 2.7q0-15.2-8.8-26.8-9.7-12.7-24.6-12.7-14.1 0-23 9.7-8.5 9.4-8.5 23.6 0 15.9 8.9 27.4 9.7 12.7 25.2 12.7 13.8 0 22.6-10.2 8.2-9.7 8.2-23.7z"/>
				<path id="&lt;Compound Path&gt;" fill-rule="evenodd" class="s0" d="m1450.5 530.3h-18.5q-2.5-5.8-11.1-17.5l-34.2-46.5v34.3q0 18.4 3.2 29.7h-19.1q3.2-12.3 3.2-29.7v-50.1l-11.3-13.4h21.7q3.7 6.5 11.4 17.2l38.8 53.8v-39.7q0-19.1-3.2-31.3h19.1q-3.2 14.2-3.2 31.6v35q0 15.5 3.2 26.6z"/>
				<path id="&lt;Compound Path&gt;" fill-rule="evenodd" class="s0" d="m1537.5 437.1q-8.6 8.5-17.3 24.4-6.8 13.2-13.8 26.4v19.3q0 12 3.3 23.1h-20.7q3.2-12.3 3.2-23.2v-19.2q-6.9-13-13.9-26-9.2-16.5-17.1-24.8h22.1q0.2 4.8 1 7.1 0.3 0.9 3.3 6.7l12 23.2 10.4-17.6c4-7.4 6.1-13.9 6.5-19.4z"/>
			</g>
			<g id="&lt;Group&gt;">
				<path id="&lt;Compound Path&gt;" fill-rule="evenodd" class="s1" d="m760.5 597.1q-3.1 1-6.2 1-2.9 0-5.4-0.8-2.5-0.8-4.3-2.3-1.8-1.5-2.8-3.6-1.1-2.1-1.1-4.7v-12.4q0-2.5 1.1-4.6 1-2 2.9-3.5 1.8-1.5 4.3-2.3 2.5-0.8 5.5-0.8 2.9 0 5.5 0.7 2.5 0.7 4.6 2.1l-2 2.8q-1.5-1.2-3.7-1.8-2.3-0.6-4.4-0.6-1.9 0-3.7 0.5-1.8 0.5-3.2 1.6-1.4 1-2.2 2.7-0.9 1.6-0.9 4v10.9q0 2.4 0.9 4 0.8 1.7 2.1 2.8 1.3 1 3.1 1.6 1.7 0.5 3.6 0.5 1.3 0 3.4-0.4 2.1-0.4 4.4-2.1v-9h-6.2v-3.2h10v13.7q-2.3 2.2-5.3 3.2z"/>
				<path id="&lt;Compound Path&gt;" fill-rule="evenodd" class="s1" d="m771.9 597.7v-34.3h24.5v3.2h-20.7v12.3h17.8v3.1h-17.8v12.6h20.7v3.1z"/>
				<path id="&lt;Compound Path&gt;" fill-rule="evenodd" class="s1" d="m814.3 566.7v31h-3.9v-31h-11.3v-3.3h26.4v3.3z"/>
				<path id="&lt;Compound Path&gt;" fill-rule="evenodd" class="s1" d="m854.7 563.1q6 0 10.1 2.8l-1.9 2.8q-1.6-1.2-3.8-1.8-2.1-0.6-4.4-0.6-1.8 0-3.4 0.5-1.7 0.5-3.1 1.6-1.3 1-2.2 2.7-0.8 1.6-0.8 4v10.9q0 2.4 0.9 4 0.8 1.7 2.1 2.8 1.4 1 3.1 1.6 1.7 0.5 3.3 0.5 2.3 0 4.5-0.6 2.2-0.6 3.9-1.9l1.9 2.7q-1.6 1.2-4.2 2.1-2.7 0.9-6 0.9-2.8 0-5.3-0.8-2.4-0.8-4.2-2.3-1.8-1.5-2.8-3.6-1-2.1-1-4.7v-12.4q0-2.5 1.1-4.6 1-2 2.8-3.5 1.8-1.5 4.2-2.3 2.4-0.8 5.2-0.8z"/>
				<path id="&lt;Compound Path&gt;" fill-rule="evenodd" class="s1" d="m896.3 586.6q0 2.7-1 4.8-1 2.1-2.8 3.6-1.8 1.5-4.3 2.3-2.5 0.8-5.4 0.8-3 0-5.5-0.8-2.5-0.9-4.2-2.4-1.8-1.5-2.8-3.6-0.9-2.1-0.9-4.7v-12q0-2.6 0.9-4.7 1-2.1 2.7-3.6 1.8-1.5 4.3-2.4 2.5-0.8 5.5-0.8 3 0 5.5 0.8 2.5 0.9 4.3 2.4 1.8 1.5 2.7 3.6 1 2.1 1 4.7zm-3.8-11.6q0-2.3-0.8-3.9-0.8-1.6-2.1-2.7-1.3-1.1-3.1-1.6-1.7-0.5-3.7-0.5-2 0-3.7 0.5-1.8 0.5-3.1 1.6-1.3 1.1-2.1 2.7-0.7 1.6-0.7 3.9v11.1q0 2.4 0.8 4 0.8 1.7 2.2 2.7 1.3 1.1 3 1.5 1.8 0.5 3.6 0.5 2 0 3.8-0.5 1.7-0.4 3-1.5 1.3-1.1 2.1-2.7 0.8-1.7 0.8-4z"/>
				<path id="&lt;Compound Path&gt;" fill-rule="evenodd" class="s1" d="m926.4 591.1v-27.7h3.8v34.3h-3.8q-0.5-0.7-1.6-2.1-1-1.4-2.3-3.2-1.3-1.9-3-4.1-1.6-2.1-3.2-4.4-1.6-2.3-3.2-4.4-1.6-2.2-3-4-1.3-1.9-2.4-3.2-1-1.4-1.5-2.1h-0.2v27.5h-3.8v-34.3h3.7q0.7 0.9 2.2 3.1 1.6 2.1 3.6 4.8 1.9 2.8 4.2 5.8 2.2 3.1 4.2 5.9c1.3 1.8 2.6 3.5 3.6 4.9q1.6 2.2 2.4 3.2z"/>
				<path id="&lt;Compound Path&gt;" fill-rule="evenodd" class="s1" d="m960.5 591.1v-27.7h3.9v34.3h-3.9q-0.4-0.7-1.5-2.1-1-1.4-2.3-3.2-1.4-1.9-3-4.1-1.6-2.1-3.2-4.4-1.6-2.3-3.2-4.4-1.6-2.2-3-4-1.4-1.9-2.4-3.2-1-1.4-1.5-2.1h-0.2v27.5h-3.8v-34.3h3.7q0.7 0.9 2.2 3.1 1.6 2.1 3.6 4.8 1.9 2.8 4.1 5.8 2.3 3.1 4.3 5.9 2 2.7 3.6 4.9 1.6 2.2 2.4 3.2z"/>
				<path id="&lt;Compound Path&gt;" fill-rule="evenodd" class="s1" d="m970.7 597.7v-34.3h24.6v3.2h-20.8v12.3h17.8v3.1h-17.8v12.6h20.8v3.1z"/>
				<path id="&lt;Compound Path&gt;" fill-rule="evenodd" class="s1" d="m1013.3 563.1q6 0 10.1 2.8l-1.9 2.8q-1.7-1.2-3.8-1.8-2.2-0.6-4.4-0.6-1.8 0-3.5 0.5-1.7 0.5-3 1.6-1.4 1-2.2 2.7-0.8 1.6-0.8 4v10.9q0 2.4 0.8 4 0.9 1.7 2.2 2.8 1.3 1 3 1.6 1.7 0.5 3.4 0.5 2.3 0 4.5-0.6 2.1-0.6 3.9-1.9l1.9 2.7q-1.6 1.2-4.3 2.1-2.6 0.9-5.9 0.9-2.9 0-5.3-0.8-2.4-0.8-4.2-2.3-1.8-1.5-2.8-3.6-1-2.1-1-4.7v-12.4q0-2.5 1-4.6 1.1-2 2.9-3.5 1.7-1.5 4.2-2.3 2.4-0.8 5.2-0.8z"/>
				<path id="&lt;Compound Path&gt;" fill-rule="evenodd" class="s1" d="m1041.1 566.7v31h-3.8v-31h-11.3v-3.3h26.3v3.3z"/>
				<path id="&lt;Compound Path&gt;" fill-rule="evenodd" class="s1" d="m1056.5 597.7v-34.3h24.5v3.2h-20.7v12.3h17.8v3.1h-17.8v12.6h20.7v3.1z"/>
				<path id="&lt;Compound Path&gt;" fill-rule="evenodd" class="s1" d="m1112.4 586.6q0 2.5-1 4.5-0.9 2.1-2.6 3.6-1.6 1.4-4 2.2-2.2 0.8-5 0.8h-13.8v-34.3h13.9q2.8 0 5.1 0.8c1.5 0.6 2.8 1.3 3.9 2.3q1.6 1.4 2.5 3.5 1 2.1 1 4.6zm-3.9-11.2q0-2.5-0.9-4.1-0.8-1.6-2.1-2.7-1.3-1-2.9-1.5-1.7-0.4-3.4-0.4h-9.4v28h9.1q1.7 0 3.4-0.4 1.7-0.5 3.1-1.5 1.3-1.1 2.2-2.7 0.9-1.6 0.9-4z"/>
				<path id="&lt;Compound Path&gt;" fill-rule="evenodd" class="s1" d="m1143.8 597.7v-40.9h3.8v40.9z"/>
				<path id="&lt;Compound Path&gt;" fill-rule="evenodd" class="s1" d="m1204.3 588.5q0 2.2-1 4-0.9 1.7-2.6 3-1.7 1.2-4.2 1.8-2.4 0.7-5.3 0.7-3.8 0-7-0.9-3.2-1-6.3-2.9l2-2.6q2.5 1.4 5.4 2.4 2.9 0.9 5.9 0.9 4.1 0 6.6-1.7 2.5-1.6 2.5-4.7 0-1.9-0.9-3-0.8-1.2-2.2-1.9-1.4-0.7-3.1-1.1-1.7-0.4-3.4-0.7-2.2-0.3-4.3-1-2.1-0.6-3.8-1.7-1.6-1.1-2.6-2.7-1-1.6-1-4 0-2.1 0.8-3.8 0.8-1.8 2.4-3.1c1-0.8 2.3-1.5 3.8-1.9q2.2-0.7 5-0.7 3 0 6.1 0.5c1.9 0.4 3.8 1 5.6 2l-1.7 3q-2.4-1.2-5.1-1.8-2.6-0.5-5.1-0.5-1.6 0-3 0.3-1.5 0.4-2.6 1.2-1.1 0.8-1.8 2-0.6 1.2-0.6 2.9 0 1.6 0.9 2.6 0.8 1.1 2.2 1.8 1.4 0.7 3 1.1c1.1 0.2 2.1 0.5 3.2 0.7q2.4 0.4 4.6 1.1 2.3 0.6 3.9 1.7 1.7 1 2.7 2.7 1 1.7 1 4.3z"/>
				<path id="&lt;Compound Path&gt;" fill-rule="evenodd" class="s1" d="m1221.9 566.7v31h-3.8v-31h-11.3v-3.3h26.3v3.3z"/>
				<path id="&lt;Compound Path&gt;" fill-rule="evenodd" class="s1" d="m1257.6 597.7q-0.7-2-1.4-4-0.8-2-1.5-3.9h-16l-3 7.9h-4q3.3-8.6 6.5-17.1 3.2-8.5 6.5-17.2h4l13.1 34.3zm-11.1-29.7q-0.5 1.4-1.3 3.9-0.9 2.6-1.9 5.3-1.1 2.8-2 5.3-0.9 2.6-1.4 4.1h13.5q-0.4-1.5-1.4-4.1-0.9-2.5-1.9-5.3-1.1-2.7-2-5.3-0.9-2.5-1.4-3.9z"/>
				<path id="&lt;Compound Path&gt;" fill-rule="evenodd" class="s1" d="m1275.6 597.7h-3.8v-13q-2.8-5.4-5.6-10.6-2.9-5.3-5.7-10.7h4.1q0.3 0.4 0.9 1.7 0.7 1.3 1.5 3 0.9 1.7 1.9 3.7 1 1.9 2 3.8 0.9 1.8 1.7 3.3 0.8 1.5 1.2 2.2 0.3-0.6 1-1.9 0.7-1.4 1.6-3.2 0.9-1.8 1.9-3.8 1-2 1.9-3.8 0.9-1.7 1.6-3.1 0.7-1.4 1-1.9h4.1l-11.3 21.2z"/>
				<path id="&lt;Compound Path&gt;" fill-rule="evenodd" class="s1" d="m1304.3 597.7v-34.3h3.8v34.3z"/>
				<path id="&lt;Compound Path&gt;" fill-rule="evenodd" class="s1" d="m1339.8 591.1v-27.7h3.8v34.3h-3.8q-0.5-0.7-1.5-2.1-1-1.4-2.4-3.2-1.3-1.9-2.9-4.1-1.6-2.1-3.3-4.4-1.6-2.3-3.2-4.4-1.6-2.2-2.9-4-1.4-1.9-2.4-3.2-1.1-1.4-1.6-2.1h-0.1v27.5h-3.8v-34.3h3.7q0.6 0.9 2.2 3.1 1.5 2.1 3.5 4.8 2 2.8 4.2 5.8 2.2 3.1 4.3 5.9 2 2.7 3.6 4.9 1.6 2.2 2.3 3.2z"/>
				<path id="&lt;Compound Path&gt;" fill-rule="evenodd" class="s1" d="m1353.8 566.6v12.3h17.8v3.1h-17.8v15.7h-3.8v-34.3h24.5v3.2z"/>
				<path id="&lt;Compound Path&gt;" fill-rule="evenodd" class="s1" d="m1405.1 586.6q0 2.7-1 4.8-1 2.1-2.8 3.6-1.8 1.5-4.3 2.3-2.5 0.8-5.4 0.8-3 0-5.5-0.8-2.5-0.9-4.2-2.4-1.8-1.5-2.8-3.6-0.9-2.1-0.9-4.7v-12q0-2.6 0.9-4.7 1-2.1 2.7-3.6 1.8-1.5 4.3-2.4c1.6-0.5 3.5-0.8 5.5-0.8q3 0 5.5 0.8 2.5 0.9 4.3 2.4 1.8 1.5 2.7 3.6 1 2.1 1 4.7zm-3.8-11.6q0-2.3-0.8-3.9-0.8-1.6-2.1-2.7-1.3-1.1-3.1-1.6-1.7-0.5-3.7-0.5-2 0-3.7 0.5-1.8 0.5-3.1 1.6-1.3 1.1-2.1 2.7-0.7 1.6-0.7 3.9v11.1q0 2.4 0.8 4 0.8 1.7 2.2 2.7 1.3 1.1 3.1 1.5 1.7 0.5 3.5 0.5 2 0 3.8-0.5 1.7-0.4 3-1.5 1.3-1.1 2.1-2.7 0.8-1.7 0.8-4z"/>
				<path id="&lt;Compound Path&gt;" fill-rule="evenodd" class="s1" d="m1414.8 597.7h-3.8v-34.3h15.1q2.8 0 4.7 0.9 2 0.9 3.3 2.3 1.3 1.5 2 3.3 0.6 1.8 0.6 3.6 0 1.4-0.5 2.9-0.4 1.4-1.3 2.7-0.9 1.2-2.2 2.2-1.3 1-3.1 1.5l7.2 14.9h-4.2l-6.7-14.2h-11.1zm0-31.1v13.6h10.6q1.6 0 2.9-0.5 1.4-0.4 2.5-1.3 0.9-0.9 1.5-2.1 0.6-1.3 0.6-2.8 0-1.6-0.6-2.9-0.6-1.2-1.5-2.1-1.1-0.9-2.5-1.4-1.3-0.5-2.9-0.5z"/>
				<path id="&lt;Compound Path&gt;" fill-rule="evenodd" class="s1" d="m1458.6 588.1l12.8-24.7h3.5v34.3h-3.8v-26h-0.2l-11 20.7h-2.9l-11.1-20.4h-0.2l-0.3 25.7h-3.8v-34.3h3.7l13.1 24.7z"/>
				<path id="&lt;Compound Path&gt;" fill-rule="evenodd" class="s1" d="m1481.2 597.7v-34.3h24.6v3.2h-20.8v12.3h17.8v3.1h-17.8v12.6h20.8v3.1z"/>
				<path id="&lt;Compound Path&gt;" fill-rule="evenodd" class="s1" d="m1537.1 586.6q0 2.5-0.9 4.5-1 2.1-2.6 3.6-1.7 1.4-4 2.2-2.3 0.8-5 0.8h-13.9v-34.3h14q2.8 0 5 0.8 2.3 0.8 3.9 2.3 1.7 1.4 2.6 3.5 0.9 2.1 0.9 4.6zm-3.9-11.2q0-2.5-0.8-4.1-0.8-1.6-2.1-2.7-1.3-1-3-1.5-1.7-0.4-3.3-0.4h-9.5v28h9.1q1.7 0 3.4-0.4 1.7-0.5 3.1-1.5c0.9-0.7 1.7-1.6 2.2-2.7q0.9-1.6 0.9-4z"/>
			</g>
			<path id="&lt;Path&gt;" fill-rule="evenodd" class="s0" d="m686.9 597.1h4.3v-286h-4.3z"/>
			<path id="&lt;Path&gt;" fill-rule="evenodd" class="s2" d="m336.8 456.4q0 9.6 0 19.1 7.2-2.1 15.1-4.5c-4.5-5.4-9-10.7-13-15.4-0.7 0.3-1.4 0.6-2.1 0.8z"/>
			<g id="&lt;Group&gt;">
				<path id="&lt;Path&gt;" fill-rule="evenodd" class="s2" d="m630.4 438.1c-11.3 14.5-21.4 27.6-30.6 39.5q0 9.6 0 19.2c9.2-11 19.3-23.1 30.6-36.4 12.4-14.9 26.5-31.6 42.3-50.4q0-13.3 0-26.6c-15.8 20.4-29.9 38.6-42.3 54.7z"/>
				<path id="&lt;Path&gt;" fill-rule="evenodd" class="s2" d="m599.8 505.6q0 9.6 0 19.1c9.2-9.5 19.3-20.1 30.6-31.8 12.4-13 26.5-27.6 42.3-44.1q0-13.2 0-26.5c-15.8 18.1-29.9 34.1-42.3 48.4-11.3 12.8-21.4 24.4-30.6 34.9z"/>
				<path id="&lt;Path&gt;" fill-rule="evenodd" class="s2" d="m599.8 533.6q0 9.5 0 19.1c9.2-8.2 19.3-17.3 30.6-27.3 12.4-11.1 26.5-23.7 42.3-37.8q0-13.2 0-26.5c-15.8 15.7-29.9 29.7-42.3 42.1-11.3 11.1-21.4 21.2-30.6 30.4z"/>
				<path id="&lt;Path&gt;" fill-rule="evenodd" class="s2" d="m599.8 561.5q0 9.6 0 19.2c9.2-6.9 19.3-14.4 30.6-22.8 12.4-9.3 26.5-19.7 42.3-31.5q0-13.2 0-26.5c-15.8 13.4-29.9 25.2-42.3 35.8-11.3 9.5-21.4 18-30.6 25.8z"/>
				<path id="&lt;Path&gt;" fill-rule="evenodd" class="s2" d="m599.8 589.5q0 9.6 0 19.1c9.2-5.5 19.3-11.5 30.6-18.2 12.5-7.4 26.5-15.8 42.3-25.2q0-13.2 0-26.5c-15.8 11-29.8 20.8-42.3 29.5-11.3 7.8-21.4 14.9-30.6 21.3z"/>
				<path id="&lt;Path&gt;" fill-rule="evenodd" class="s2" d="m606.4 613.8l15.9 12.8c2.7-1.3 5.2-2.4 8.1-3.6 12.5-5.6 26.5-11.9 42.3-18.9q0-13.3 0-26.6c-15.8 8.7-29.8 16.4-42.3 23.2-8.7 4.8-16.6 9.1-24 13.1z"/>
				<path id="&lt;Path&gt;" fill-rule="evenodd" class="s2" d="m387.8 460.4q10.3-3.1 21.9-6.5 0-13.3 0-26.6c-15.8 6.3-29.7 11.9-42.2 16.9z"/>
				<path id="&lt;Path&gt;" fill-rule="evenodd" class="s2" d="m409.7 477.9v-11.8q-5.8 1.5-11.2 2.8z"/>
			</g>
			<path id="&lt;Path&gt;" fill-rule="evenodd" class="s3" d="m555.7 538.7l-108.1 91.2-109.6-92.4v78.1l109.3 92.3 0.2 0.2h0.1l0.6 0.5 4.8-5.1 102.7-86.7z"/>
			<g id="&lt;Group&gt;">
				<path id="&lt;Path&gt;" fill-rule="evenodd" class="s3" d="m494.4 249.1c-25-16.1-53.1-34.2-84.7-54.7q0 13.3 0 26.6c31.6 18.8 59.7 35.5 84.7 50.4 22.4 13.4 42.6 25.4 61 36.4q0-9.6 0-19.2c-18.4-11.9-38.6-24.9-61-39.5z"/>
				<path id="&lt;Path&gt;" fill-rule="evenodd" class="s3" d="m409.7 233.3q0 13.3 0 26.5c31.6 16.5 59.7 31.1 84.7 44.1 22.4 11.7 42.6 22.3 61 31.8q0-9.5 0-19.1c-18.4-10.5-38.6-22.1-61-34.9-25-14.3-53.1-30.3-84.7-48.4z"/>
				<path id="&lt;Path&gt;" fill-rule="evenodd" class="s3" d="m409.7 349.7q0 13.3 0 26.5c31.6 9.4 59.7 17.8 84.7 25.2 22.4 6.7 42.7 12.7 61 18.2q0-9.5 0-19.1c-18.4-6.4-38.6-13.5-61-21.3-25-8.7-53.1-18.5-84.7-29.5z"/>
				<path id="&lt;Path&gt;" fill-rule="evenodd" class="s3" d="m409.7 466.1v11.8l15.3 12.3 22.1 18.7 13-8.7q0.1 0 0.1 0v-22.2q0 0-0.1 0c-13.5-3.1-33.3-7.9-50.4-11.9z"/>
				<path id="&lt;Path&gt;" fill-rule="evenodd" class="s3" d="m409.7 415.1l50.4 14.1v-22.2c0-0.8 0.3-1.4 0.4-2.1l-50.8-16.4z"/>
				<path id="&lt;Path&gt;" fill-rule="evenodd" class="s3" d="m459.8 439.8l-50.1-12.5v26.5l50.1 11z"/>
				<path id="&lt;Path&gt;" fill-rule="evenodd" class="s3" d="m509.9 343.3c16.3 7.3 31.5 14.1 45.5 20.4q0-9.6 0-19.1c-14-7-29.2-14.5-45.5-22.7z"/>
				<path id="&lt;Path&gt;" fill-rule="evenodd" class="s3" d="m460.5 297.3c-15.9-7.8-32.7-16.2-50.8-25.2q0 13.3 0 26.5c18.1 8.1 34.9 15.6 50.8 22.7z"/>
				<path id="&lt;Path&gt;" fill-rule="evenodd" class="s3" d="m460.5 332.4c-15.9-6.8-32.7-13.9-50.8-21.5q0 13.3 0 26.5c18.1 6.8 34.9 13 50.8 18.9z"/>
				<path id="&lt;Path&gt;" fill-rule="evenodd" class="s3" d="m509.9 374.7c16.3 6.1 31.5 11.7 45.5 17q0-9.6 0-19.2c-14-5.9-29.2-12.3-45.5-19.3z"/>
			</g>
			<path id="&lt;Path&gt;" fill-rule="evenodd" class="s0" d="m629.7 454l-41-43.5-142.3 120.1-141.7-119.5-41.7 43.7v0.1l-0.5-0.1v1.1 97.2 4.1l53.4 47.8v-45.7-26-34.1l130.3 109.4 0.2 0.2 0.6 0.5 4.8-5.1 123.7-104.4v104.2l40.7-45.9 13.5-14.8z"/>
		</g>
	</g>
</svg>